<?xml version="1.0" encoding="UTF-8" standalone="no"?>
<svg xmlns:rdf="http://www.w3.org/1999/02/22-rdf-syntax-ns#" xmlns="http://www.w3.org/2000/svg" height="932.81" viewBox="0 0 232.5 932.8125" width="232.5" version="1.1" xmlns:cc="http://creativecommons.org/ns#" xmlns:dc="http://purl.org/dc/elements/1.1/">
<path d="m98.906 932.23c-14.964-1.2058-50.766-9.742-52.478-12.512-0.25998-0.42065-1.6368-1.0473-3.0597-1.3927-4.2942-1.0422-17.485-6.3676-19.054-7.6925-0.80692-0.6814-2.9163-1.7378-4.6875-2.3477-3.2533-1.1201-9.6597-4.9369-11.981-7.138-0.69338-0.65746-2.4576-1.8143-3.9205-2.5708l-2.6588-1.37-0.18471-19.47c-0.24065-25.35-0.24005-24.58-0.02731-34.93 0.10074-4.9 0.16312-112.7 0.13862-239.56-0.04849-251.07-0.09529-248.82 5.6117-269.5 3.253-11.789 12.53-33.934 16.888-40.312 0.88071-1.2891 2.985-4.875 4.6762-7.9688 5.2166-9.5429 5.5198-10.062 11.225-19.219 3.0521-4.8984 6.5114-10.805 7.6874-13.125 1.176-2.3203 2.4103-4.4297 2.7429-4.6875 3.4956-2.7096 16.751-34.421 19.397-46.406 0.5693-2.5781 1.4847-6.5859 2.0341-8.9062 1.4408-6.0843 1.6341-7.251 2.4074-14.531 0.38336-3.6094 0.84116-7.8281 1.0173-9.375 0.82222-7.2195 2.5476-48.037 2.4371-57.656-0.331-29.035-1.606-57.655-2.774-62.331-2.144-8.581-2.659-26.769-0.857-30.255 0.793-1.534 1.178-3.053 0.855-3.376-0.324-0.324-0.096-0.588 0.506-0.588 0.60156 0 1.0938-0.52788 1.0938-1.1731 0-0.64518 2.2148-3.5298 4.9219-6.4103 6.565-6.9867 6.366-6.9544 41.12-6.6592l21.19 0.1801 3.9988 3.1644c10.593 8.3829 14.423 23.734 10.459 41.929-0.84806 3.8931-0.98577 13.826-0.53289 38.438 0.33589 18.253 0.59117 33.61 0.56729 34.125-0.32481 7.0151-0.19055 23.108 0.19805 23.737 0.28076 0.45428 0.74273 3.7368 1.0266 7.2946 0.82391 10.326 4.2229 39.91 4.6681 40.631 0.22323 0.36118 0.60701 1.6818 0.85285 2.9348 5.4737 27.896 13.608 48.47 28.701 72.591 2.5811 4.125 5.0742 8.3438 5.5401 9.375 0.46599 1.0312 2.026 3.5625 3.4666 5.625 2.297 3.2885 15.381 28.839 15.381 30.036 0 0.24938 0.81687 2.2418 1.8153 4.4276 4.7379 10.373 7.8766 19.772 8.9968 26.943 0.36245 2.3203 0.79705 4.9626 0.96577 5.8717 1.2108 6.524 2.341 26.279 2.291 40.044-0.0328 9.0354-0.0459 64.944-0.0292 124.24 0.0282 99.786-0.31761 175.9-1.378 303.28-0.54813 65.846-0.69108 69.764-2.7525 75.45-9.3452 25.779-71.664 45.739-128.5 41.159zm52.974-251.21c11.238-1.2553 17.654-2.2529 19.831-3.0834 1.368-0.52185 4.9764-1.4002 8.0186-1.9518 15.747-2.8554 34.285-10.983 43.731-19.171l5.2946-4.5902v-112.83c0-127.33 0.84845-114.37-7.2984-111.5-2.0813 0.73431-5.4038 1.5917-7.3835 1.9053-1.9797 0.31361-8.24 1.3706-13.912 2.3488-27.24 4.6982-107.8 5.7904-141.56 1.9194-4.131-0.47-10.248-1.1-13.6-1.39-5.928-0.51-8.641-0.82-16.406-1.9-4.639-0.64-18.781-4.89-22.266-6.68l-2.578-1.34v114.14 114.14l3.5156 3.1647c10.272 9.2469 34.702 20.89 43.655 20.805 0.93624-0.008 2.4128 0.36012 3.2812 0.81993 0.86845 0.4598 3.9035 1.061 6.7446 1.3361 2.8411 0.27505 7.0599 0.92373 9.375 1.4415 2.3151 0.51778 9.2719 1.4257 15.459 2.0177 6.1875 0.59195 12.094 1.2034 13.125 1.3587 2.404 0.36208 48.624-0.48201 52.969-0.96736zm19.85-326.59 0.30577-7.442-3.0878-0.57694c-5.4592-1.02-6.7559-0.0197-6.7559 5.2116 0 4.6922 0.61017 5.5142 2.6094 3.515 1.3959-1.3959 2.032-0.76708 2.6453 2.615 0.44475 2.4527 1.7622 4.069 3.3458 4.105 0.34746 0.007 0.76934-3.3345 0.9375-7.4276zm6.1087 2.954c0.6135-0.39008 1.2463-2.9204 1.4062-5.623 0.33492-5.6596 1.7603-6.7351 3.0628-2.311 1.0771 3.6587 2.6286 3.9076 4.1088 0.65902 2.8879-6.3382 0.35858-11.12-5.4264-10.259-6.2018 0.92296-6.6792 1.5955-6.2329 8.7808 0.21212 3.4155 0.42485 6.9483 0.47273 7.8506 0.0937 1.7667 0.8424 2.0258 2.6088 0.90269zm-19.58-165.08c1.1906-0.0622 1.9251-0.50069 1.6323-0.97451-0.29284-0.47381-0.72887-4.1652-0.96895-8.2031-0.2401-4.0379-0.85535-10.295-1.3672-13.904-0.51188-3.6094-0.95026-10.781-0.97417-15.938-0.0661-14.246 0.10658-13.958-7.8919-13.168-9.0296 0.89181-41.468 0.90293-55.97 0.0192-14.732-0.89774-13.16-3.5523-14.44 24.39-0.28327 6.1828-0.89936 12.722-1.3691 14.531-1.0578 4.0747-1.548 10.995-0.82971 11.713 0.29386 0.29386 9.1052 0.73806 19.581 0.9871s19.148 0.55393 19.273 0.67752c0.21787 0.21653 38.91 0.0995 43.326-0.13102zm-70.858-56.597c0.22742-0.64453 0.46029-10.153 0.51749-21.13 0.05721-10.977 0.34767-20.726 0.64548-21.665 0.63609-2.0041-1.4917-4.1022-3.4128-3.365-1.3019 0.4996-1.4941 3.2547-2.006 28.754-0.05594 2.7869-0.44659 4.1766-1.0695 3.8044-0.53974-0.32245-0.41768 0.10903 0.27124 0.95886s0.97589 1.9928 0.63771 2.54c-1.3191 2.1344 0.57478 11.275 2.3362 11.275 0.91667 0 1.8527-0.52734 2.0802-1.1719zm5.8295-14.174c0.15697-10.949-0.05136-14.361-0.79927-13.091-1.4493 2.4612-1.9074 28.731-0.49281 28.259 0.74164-0.24722 1.1463-4.9973 1.2921-15.169zm5.3964 9.4864c0.10385-3.2226 0.11228-8.2195 0.01875-11.104-0.14498-4.4704 0.16746-5.5619 2.1159-7.3924l2.286-2.1476-3.4674-3.0855c-3.649-3.2471-4.7361-3.5158-3.2131-0.79438 0.50236 0.89766 0.62013 2.7223 0.26169 4.0547-0.5019 1.8658-0.62051 21.824-0.15229 25.626 0.40542 3.2921 2.0015-0.5349 2.1504-5.1562zm53.962-45.552c1.8624-1.1821 1.3462-36.331-0.55662-37.908-2.2035-1.826-73.241-1.6574-72.539 0.17222 0.34788 0.90737 0.12226 1.0871-0.71504 0.56964-0.9687-0.59869-1.0925 0.11613-0.59484 3.4347 0.34564 2.3049 0.64503 10.816 0.66531 18.913l0.03686 14.722 2.9768-0.54843c1.6372-0.30164 3.8205-0.53036 4.8518-0.50829 1.0312 0.02208 3.5625 0.0039 5.625-0.04031 14.219-0.30504 56.719 0.7265 57.386 1.3928 0.7633 0.7633 1.4195 0.71761 2.8642-0.19939z"/>
</svg>
